<?xml version="1.0" standalone="no"?>
<!DOCTYPE svg PUBLIC "-//W3C//DTD SVG 20010904//EN"
 "http://www.w3.org/TR/2001/REC-SVG-20010904/DTD/svg10.dtd">
<svg version="1.0" xmlns="http://www.w3.org/2000/svg"
 width="500.000000pt" height="500.000000pt" viewBox="0 0 500.000000 500.000000"
 preserveAspectRatio="xMidYMid meet">

<g transform="translate(0.000000,500.000000) scale(0.100000,-0.100000)"
fill="#000000" stroke="none">
<path d="M2987 3727 c-3 -7 -2 -19 3 -26 5 -9 9 -8 14 5 4 9 3 21 -2 26 -6 6
-12 4 -15 -5z"/>
<path d="M2840 3676 c0 -2 15 -6 34 -8 19 -2 32 0 30 4 -5 8 -64 12 -64 4z"/>
<path d="M3006 3672 c-3 -5 4 -16 15 -25 10 -9 19 -12 19 -7 0 6 6 10 14 10 7
0 20 8 27 18 12 15 12 16 -1 6 -17 -14 -72 -16 -64 -3 3 5 3 9 0 9 -3 0 -7 -4
-10 -8z"/>
<path d="M2656 3631 c-10 -11 -16 -26 -13 -33 4 -10 6 -10 6 1 1 8 8 23 18 33
9 10 14 18 11 18 -3 0 -13 -9 -22 -19z"/>
<path d="M2920 3611 c0 -6 4 -13 10 -16 6 -3 7 1 4 9 -7 18 -14 21 -14 7z"/>
<path d="M2635 3569 c-4 -6 -5 -12 -2 -15 2 -3 7 2 10 11 7 17 1 20 -8 4z"/>
<path d="M2987 3520 c-14 -22 -15 -30 -5 -36 7 -4 10 -3 5 1 -4 5 0 19 9 33 8
13 14 25 12 28 -2 2 -12 -10 -21 -26z"/>
<path d="M2842 3512 c-13 -15 -21 -21 -17 -15 4 9 1 11 -9 7 -11 -4 -16 0 -17
12 0 17 -1 16 -9 -2 -9 -24 -36 -37 -53 -27 -7 4 -6 -1 2 -10 16 -20 46 -24
35 -4 -4 6 -4 9 1 5 4 -4 14 -3 22 3 9 9 13 8 13 0 0 -16 30 -14 36 3 3 8 14
13 25 11 11 -2 17 0 14 5 -3 4 14 6 37 4 l43 -3 -40 8 c-27 6 -45 5 -54 -2
-11 -10 -13 -8 -7 11 9 28 7 27 -22 -6z"/>
<path d="M3100 3536 c0 -3 9 -10 20 -16 11 -6 20 -8 20 -6 0 3 -9 10 -20 16
-11 6 -20 8 -20 6z"/>
<path d="M2655 3510 c6 -10 4 -12 -11 -6 -15 6 -17 5 -6 -5 9 -9 15 -10 23 -2
8 8 7 13 -2 18 -8 6 -10 4 -4 -5z"/>
<path d="M2675 3491 c-6 -11 13 -26 22 -17 4 3 0 6 -8 6 -11 0 -11 2 1 10 9 6
10 10 3 10 -6 0 -14 -4 -18 -9z"/>
<path d="M2591 3454 c0 -11 3 -14 6 -6 3 7 2 16 -1 19 -3 4 -6 -2 -5 -13z"/>
<path d="M2795 3458 c-4 -10 -13 -15 -23 -11 -9 2 -3 -8 14 -24 18 -15 34 -35
37 -43 4 -10 6 -10 6 -2 1 7 -7 24 -16 38 -13 21 -14 25 -2 22 8 -2 16 0 17 5
1 4 -1 7 -4 6 -4 0 -10 5 -15 12 -6 11 -9 10 -14 -3z"/>
<path d="M2992 3450 c0 -14 2 -19 5 -12 2 6 2 18 0 25 -3 6 -5 1 -5 -13z"/>
<path d="M3010 3465 c0 -5 5 -17 10 -25 5 -8 10 -10 10 -5 0 6 -5 17 -10 25
-5 8 -10 11 -10 5z"/>
<path d="M3161 3455 c1 -19 18 -51 18 -35 0 8 -4 22 -9 30 -5 8 -9 11 -9 5z"/>
<path d="M2590 3388 c0 -9 7 -22 17 -29 15 -13 15 -12 3 11 -17 34 -20 36 -20
18z"/>
<path d="M2850 3363 c0 -13 48 -38 57 -30 3 4 0 7 -7 7 -7 0 -22 7 -32 17 -10
9 -18 12 -18 6z"/>
<path d="M2945 3360 c-19 -8 -19 -9 3 -9 12 -1 22 4 22 9 0 6 -1 10 -2 9 -2 0
-12 -4 -23 -9z"/>
<path d="M3200 3355 c0 -8 -9 -20 -19 -27 -15 -9 -17 -15 -8 -29 9 -14 6 -21
-14 -37 -13 -11 -22 -22 -19 -25 3 -3 23 14 45 36 22 22 33 35 23 28 -11 -8
-18 -9 -23 -1 -8 13 13 42 25 35 5 -3 6 4 3 15 -6 24 -13 26 -13 5z"/>
<path d="M2525 3351 c3 -6 -83 -10 -222 -11 -206 0 -261 -5 -225 -17 6 -3 12
-11 12 -19 0 -8 -6 -15 -12 -15 -7 -1 1 -4 17 -8 29 -6 30 -8 27 -61 -4 -53
-13 -75 -32 -75 -6 0 -9 -4 -7 -10 1 -5 5 -9 10 -7 4 1 7 -2 7 -8 0 -5 -7 -10
-16 -10 -8 0 -13 -4 -10 -9 4 -5 0 -12 -6 -14 -7 -3 3 -4 22 -2 19 2 42 4 50
4 13 1 13 3 0 10 -8 6 -18 7 -22 5 -4 -3 -7 6 -6 20 2 17 8 26 19 26 13 0 16
-6 12 -22 l-5 -23 20 24 c11 13 24 21 31 17 6 -4 11 -2 11 5 0 6 -8 9 -19 6
-12 -3 -22 1 -26 11 -5 14 -7 15 -16 2 -8 -11 -9 2 -5 42 5 51 4 59 -14 70
-44 28 -14 45 46 27 63 -19 65 -30 62 -453 l-3 -379 -38 -13 c-34 -12 -41 -11
-75 8 -20 12 -39 23 -41 25 -10 7 12 17 52 24 l42 6 -47 2 c-73 2 -82 8 -58
41 11 15 20 32 20 37 0 4 -5 0 -11 -10 -9 -15 -13 -16 -27 -5 -15 11 -15 11
-4 -3 10 -14 10 -18 -3 -23 -9 -3 -14 -2 -11 2 8 13 -51 7 -68 -7 -14 -12 -20
-11 -41 9 -14 13 -25 19 -25 13 0 -6 7 -16 15 -23 16 -13 11 -30 -8 -29 -9 0
-8 2 1 6 13 5 7 23 -9 23 -6 0 -7 -4 -4 -10 3 -5 0 -10 -7 -10 -7 0 9 -13 36
-29 28 -17 44 -31 37 -35 -6 -4 -11 -2 -11 3 0 6 -7 11 -16 11 -13 0 -14 -3
-5 -14 9 -11 8 -15 -5 -20 -9 -4 -14 -9 -11 -13 4 -3 2 -12 -4 -19 -7 -8 -6
-14 2 -20 7 -4 10 -3 7 2 -3 5 6 20 20 34 13 14 22 20 18 13 -3 -6 -1 -15 6
-19 17 -11 71 -5 80 9 4 7 11 7 21 -2 13 -10 15 -9 13 5 -1 9 -11 23 -22 31
-18 13 -17 14 8 9 67 -12 107 -55 109 -119 1 -31 2 -31 8 -5 6 27 6 27 30 9
20 -16 25 -29 29 -94 7 -121 -25 -167 -118 -167 -22 0 -40 -4 -40 -10 0 -6 97
-10 270 -10 173 0 270 4 270 10 0 6 -20 10 -45 10 -52 0 -99 21 -115 49 -6 12
-10 100 -10 214 l0 194 110 7 c178 11 282 48 361 127 63 63 92 136 97 245 5
104 -12 177 -53 239 -19 27 -22 36 -10 31 9 -3 13 -2 10 4 -3 6 -14 10 -24 10
-22 0 -64 43 -54 55 5 4 3 5 -3 2 -14 -8 -104 23 -104 36 0 4 -4 5 -10 2 -5
-3 -36 -1 -67 4 -32 6 -79 12 -105 13 -27 0 -48 5 -48 10 0 4 -5 8 -11 8 -5 0
-8 -4 -4 -9z m144 -56 c88 -52 122 -143 122 -330 1 -270 -62 -358 -267 -372
l-84 -6 0 368 0 367 98 -4 c74 -3 106 -8 131 -23z m-681 -751 c-34 -18 -36
-28 -4 -22 18 4 23 1 19 -10 -5 -12 -2 -12 18 -3 22 11 23 11 6 -3 -11 -8 -25
-12 -33 -9 -8 3 -14 0 -14 -6 0 -6 5 -11 11 -11 5 0 7 -5 3 -12 -5 -8 -11 -4
-18 13 -6 13 -14 27 -19 30 -18 13 3 44 30 46 l28 1 -27 -14z m34 -81 c-6 -2
-10 -9 -6 -14 3 -5 0 -9 -5 -9 -12 0 -14 13 -4 23 3 4 11 7 17 6 6 0 5 -3 -2
-6z m206 -70 l-3 -28 -37 37 c-34 33 -39 48 -16 48 5 0 6 -6 3 -12 -4 -7 1 -4
9 6 9 11 16 16 16 11 0 -5 6 -3 13 4 10 10 13 7 15 -13 2 -14 2 -38 0 -53z"/>
<path d="M3040 3351 c0 -9 -7 -11 -21 -8 -16 4 -18 3 -8 -9 6 -8 8 -25 5 -39
l-7 -26 23 23 c26 26 30 39 17 59 -7 12 -9 12 -9 0z"/>
<path d="M3098 3343 c7 -3 16 -2 19 1 4 3 -2 6 -13 5 -11 0 -14 -3 -6 -6z"/>
<path d="M2891 3304 c0 -11 3 -14 6 -6 3 7 2 16 -1 19 -3 4 -6 -2 -5 -13z"/>
<path d="M3061 3244 c0 -11 3 -14 6 -6 3 7 2 16 -1 19 -3 4 -6 -2 -5 -13z"/>
<path d="M3105 3210 c-3 -6 1 -7 9 -4 18 7 21 14 7 14 -6 0 -13 -4 -16 -10z"/>
<path d="M2026 3169 c-8 -42 0 -50 9 -9 4 17 5 34 2 36 -2 3 -7 -10 -11 -27z"/>
<path d="M3068 3193 c7 -3 16 -2 19 1 4 3 -2 6 -13 5 -11 0 -14 -3 -6 -6z"/>
<path d="M1938 3164 c-24 -12 -28 -21 -26 -52 l1 -37 4 38 c4 32 7 36 19 26
12 -9 13 -9 9 3 -4 9 4 18 22 25 15 6 21 11 13 12 -8 0 -27 -7 -42 -15z"/>
<path d="M1817 3081 c-9 -16 -17 -33 -17 -38 1 -4 8 4 16 20 8 15 19 27 24 27
6 0 10 5 10 10 0 19 -16 10 -33 -19z"/>
<path d="M2207 3071 c-4 -17 -3 -21 5 -13 5 5 8 16 6 23 -3 8 -7 3 -11 -10z"/>
<path d="M1866 3047 c3 -10 9 -15 12 -12 3 3 0 11 -7 18 -10 9 -11 8 -5 -6z"/>
<path d="M1969 3043 c14 -3 35 -12 48 -20 22 -15 26 -15 41 2 16 18 16 18 0 6
-14 -10 -21 -10 -40 3 -12 9 -34 15 -48 15 l-25 -2 24 -4z"/>
<path d="M2072 3011 c-11 -7 -10 -9 3 -14 9 -4 14 -3 10 2 -3 5 1 12 7 14 7 3
9 6 3 6 -5 0 -16 -3 -23 -8z"/>
<path d="M2175 3001 c-3 -5 -1 -12 5 -16 5 -3 10 1 10 9 0 18 -6 21 -15 7z"/>
<path d="M1881 2964 c0 -11 3 -14 6 -6 3 7 2 16 -1 19 -3 4 -6 -2 -5 -13z"/>
<path d="M1780 2955 c0 -5 5 -17 10 -25 5 -8 10 -10 10 -5 0 6 -5 17 -10 25
-5 8 -10 11 -10 5z"/>
<path d="M1580 2938 c0 -6 10 -22 22 -35 17 -18 19 -26 10 -35 -9 -9 -15 -9
-23 -1 -13 13 -42 6 -34 -8 3 -4 13 -5 22 -2 10 4 14 2 10 -4 -4 -6 1 -17 11
-24 15 -13 16 -12 3 4 -12 15 -11 17 3 17 9 0 16 -4 16 -8 0 -4 23 -13 51 -18
l50 -11 -27 22 c-15 12 -35 20 -45 18 -9 -3 -20 1 -25 8 -5 9 -2 10 12 5 12
-5 7 5 -15 28 -38 39 -35 47 7 18 38 -26 52 -34 52 -28 0 2 -16 14 -35 26 -19
12 -33 26 -29 31 3 5 -4 9 -15 9 -12 0 -21 -5 -21 -12z"/>
<path d="M1670 2937 c0 -2 20 -17 45 -32 24 -16 42 -32 40 -36 -3 -4 3 -6 13
-5 9 0 16 -5 14 -12 -1 -8 2 -11 7 -7 12 7 34 -30 29 -50 -2 -11 -9 -11 -41 0
-35 12 -66 2 -33 -11 9 -3 13 -11 9 -18 -3 -6 -1 -6 8 2 16 15 46 16 55 0 4
-6 3 -8 -4 -4 -6 3 -13 2 -17 -4 -3 -6 4 -10 18 -10 20 0 23 4 19 25 -2 15 0
25 7 25 6 0 10 -3 10 -7 -4 -23 3 -33 21 -33 19 0 20 -2 5 -30 -8 -16 -15 -36
-15 -44 0 -8 -5 -16 -12 -18 -7 -3 -6 -7 5 -11 13 -5 17 -1 17 19 0 58 59 129
134 162 42 18 46 14 7 -7 -28 -15 -31 -19 -15 -23 24 -6 76 -100 85 -153 6
-38 7 -39 8 -7 1 32 -24 92 -60 143 -19 27 -19 27 5 42 13 9 30 23 39 32 9 8
19 16 22 16 3 0 19 2 36 6 21 4 27 9 20 16 -7 7 -18 7 -33 -1 -13 -6 -56 -23
-97 -38 -40 -14 -87 -34 -104 -44 -39 -24 -57 -16 -57 27 0 30 -2 34 -15 23
-16 -13 -21 -35 -6 -26 5 4 7 -3 4 -14 -5 -19 -7 -19 -23 8 -10 16 -20 40 -23
53 l-4 24 -2 -23 -1 -23 -27 19 c-32 22 -93 54 -93 49z m230 -157 c0 -5 -2
-10 -4 -10 -3 0 -8 5 -11 10 -3 6 -1 10 4 10 6 0 11 -4 11 -10z"/>
<path d="M1822 2890 c0 -14 2 -19 5 -12 2 6 2 18 0 25 -3 6 -5 1 -5 -13z"/>
<path d="M1881 2894 c0 -11 3 -14 6 -6 3 7 2 16 -1 19 -3 4 -6 -2 -5 -13z"/>
<path d="M2053 2903 c9 -2 23 -2 30 0 6 3 -1 5 -18 5 -16 0 -22 -2 -12 -5z"/>
<path d="M1720 2856 c0 -3 9 -10 19 -16 15 -7 22 -7 27 2 4 7 4 10 -1 6 -4 -4
-16 -3 -26 3 -11 5 -19 7 -19 5z"/>
<path d="M1894 2828 l-19 -23 25 20 c14 11 27 21 29 22 2 2 0 3 -6 3 -5 0 -18
-10 -29 -22z"/>
<path d="M1650 2790 c8 -5 20 -10 25 -10 6 0 3 5 -5 10 -8 5 -19 10 -25 10 -5
0 -3 -5 5 -10z"/>
<path d="M1700 2782 c0 -6 9 -12 20 -15 11 -3 20 -3 20 -1 0 2 -9 8 -20 14
-11 6 -20 7 -20 2z"/>
<path d="M1793 2673 c9 -2 23 -2 30 0 6 3 -1 5 -18 5 -16 0 -22 -2 -12 -5z"/>
<path d="M1963 2645 c0 -22 2 -30 4 -17 2 12 2 30 0 40 -3 9 -5 -1 -4 -23z"/>
<path d="M1715 2650 c-3 -6 1 -7 9 -4 18 7 21 14 7 14 -6 0 -13 -4 -16 -10z"/>
<path d="M2062 2640 c0 -14 2 -19 5 -12 2 6 2 18 0 25 -3 6 -5 1 -5 -13z"/>
<path d="M2128 2653 c12 -2 30 -2 40 0 9 3 -1 5 -23 4 -22 0 -30 -2 -17 -4z"/>
<path d="M1865 2630 c-3 -5 -1 -10 4 -10 6 0 11 5 11 10 0 6 -2 10 -4 10 -3 0
-8 -4 -11 -10z"/>
<path d="M2148 2573 c7 -3 16 -2 19 1 4 3 -2 6 -13 5 -11 0 -14 -3 -6 -6z"/>
<path d="M1700 2563 c0 -15 21 -36 65 -63 l35 -22 -20 -25 c-11 -14 -20 -35
-19 -47 0 -15 4 -10 12 14 8 23 25 42 52 57 l40 23 -33 -6 c-25 -5 -41 -1 -73
21 -22 16 -44 35 -49 44 -5 9 -10 11 -10 4z"/>
<path d="M2081 2559 c-13 -5 -22 -12 -19 -14 3 -3 20 1 39 9 37 17 19 21 -20
5z"/>
<path d="M2080 2446 c0 -2 8 -10 18 -17 15 -13 16 -12 3 4 -13 16 -21 21 -21
13z"/>
<path d="M1854 2388 l-19 -23 23 19 c21 18 27 26 19 26 -2 0 -12 -10 -23 -22z"/>
<path d="M2050 2380 c6 -11 13 -20 16 -20 2 0 0 9 -6 20 -6 11 -13 20 -16 20
-2 0 0 -9 6 -20z"/>
<path d="M2080 2330 c6 -11 13 -20 16 -20 2 0 0 9 -6 20 -6 11 -13 20 -16 20
-2 0 0 -9 6 -20z"/>
<path d="M1771 2314 c0 -11 3 -14 6 -6 3 7 2 16 -1 19 -3 4 -6 -2 -5 -13z"/>
<path d="M1929 2303 c-13 -16 -12 -17 4 -4 9 7 17 15 17 17 0 8 -8 3 -21 -13z"/>
<path d="M1780 2281 c0 -6 4 -13 10 -16 6 -3 7 1 4 9 -7 18 -14 21 -14 7z"/>
<path d="M2009 2276 c13 -16 51 -41 51 -33 0 2 -15 14 -32 27 -21 15 -28 17
-19 6z"/>
<path d="M1820 2260 c-18 -12 -2 -12 25 0 13 6 15 9 5 9 -8 0 -22 -4 -30 -9z"/>
<path d="M1690 1851 c0 -6 5 -11 10 -11 6 0 10 -40 10 -100 0 -84 -3 -101 -17
-109 -14 -8 -3 -10 42 -10 46 0 55 2 38 9 -19 8 -23 17 -23 55 l0 45 40 0 c69
0 106 64 60 105 -23 21 -160 35 -160 16z m128 -23 c30 -30 -3 -88 -50 -88 -15
0 -18 9 -18 50 0 48 1 50 28 50 15 0 33 -5 40 -12z"/>
<path d="M2020 1851 c0 -5 7 -11 15 -15 12 -4 15 -25 15 -100 0 -80 -3 -97
-17 -105 -14 -8 -5 -10 37 -11 52 0 53 1 32 16 -20 14 -22 23 -22 105 0 70 3
91 15 95 30 12 14 24 -30 24 -25 0 -45 -4 -45 -9z"/>
<path d="M2260 1850 c0 -5 6 -10 14 -10 17 0 26 -44 26 -126 0 -54 3 -65 22
-78 28 -20 98 -21 124 -2 16 12 20 31 25 107 3 58 10 94 17 97 27 9 10 22 -28
22 -22 0 -40 -4 -40 -10 0 -5 6 -10 14 -10 30 0 32 -152 4 -187 -12 -15 -66
-17 -88 -3 -11 7 -16 33 -19 95 -2 71 0 86 13 91 32 12 15 24 -34 24 -27 0
-50 -4 -50 -10z"/>
<path d="M2660 1850 c0 -5 5 -10 10 -10 6 0 10 -40 10 -100 0 -84 -3 -101 -17
-109 -14 -8 -7 -10 31 -11 47 0 48 0 27 18 -20 15 -22 25 -19 97 l3 80 40 -90
c22 -50 45 -92 50 -94 6 -2 28 38 50 89 l40 91 3 -83 c2 -69 0 -85 -14 -95
-15 -11 -10 -13 34 -13 l52 0 -20 20 c-17 17 -20 33 -20 99 0 57 4 84 15 95
22 21 19 26 -15 26 -29 0 -33 -6 -73 -92 l-43 -92 -38 92 c-38 90 -39 92 -72
92 -19 0 -34 -4 -34 -10z"/>
<path d="M3202 1843 c-5 -10 -24 -56 -42 -103 -18 -47 -42 -93 -52 -102 -20
-18 -19 -18 23 -18 33 1 40 3 27 10 -17 10 -15 43 5 68 15 20 75 15 87 -7 14
-27 13 -58 -2 -64 -7 -3 12 -6 42 -6 51 -1 53 0 33 14 -11 8 -39 60 -63 120
-23 58 -44 105 -46 105 -2 0 -7 -8 -12 -17z m7 -121 c-17 -2 -33 -2 -35 1 -2
2 3 21 12 43 l17 39 18 -40 18 -40 -30 -3z"/>
</g>
</svg>
